<svg width="38" height="38" viewBox="0 0 38 38" fill="none" xmlns="http://www.w3.org/2000/svg">
<path d="M19.0001 0.666687C15.3741 0.666687 11.8295 1.74192 8.81464 3.75641C5.79974 5.7709 3.44991 8.63418 2.0623 11.9842C0.674692 15.3341 0.31163 19.0204 1.01903 22.5767C1.72642 26.133 3.4725 29.3997 6.03647 31.9636C8.60043 34.5276 11.8671 36.2737 15.4234 36.9811C18.9798 37.6885 22.666 37.3254 26.016 35.9378C29.3659 34.5502 32.2292 32.2004 34.2437 29.1855C36.2582 26.1706 37.3334 22.626 37.3334 19C37.3334 14.1377 35.4019 9.47456 31.9637 6.0364C28.5256 2.59823 23.8624 0.666687 19.0001 0.666687ZM28.5118 15.1784L16.8451 26.845C16.5325 27.1575 16.1087 27.333 15.6668 27.333C15.2248 27.333 14.801 27.1575 14.4884 26.845L9.48842 21.845C9.18483 21.5307 9.01684 21.1097 9.02063 20.6727C9.02443 20.2357 9.19971 19.8177 9.50873 19.5087C9.81774 19.1996 10.2358 19.0244 10.6728 19.0206C11.1097 19.0168 11.5308 19.1848 11.8451 19.4884L15.6668 23.31L26.1551 12.8217C26.4694 12.5181 26.8904 12.3501 27.3274 12.3539C27.7644 12.3577 28.1824 12.533 28.4915 12.842C28.8005 13.151 28.9758 13.569 28.9796 14.006C28.9833 14.443 28.8154 14.864 28.5118 15.1784Z" fill="#E3B100"/>
</svg>
